<svg width="26" height="25" viewBox="0 0 26 25" fill="none" xmlns="http://www.w3.org/2000/svg">
<path d="M25.1758 22.8438C23.4265 19.8303 20.6265 17.5686 17.3125 16.4922C18.901 15.5476 20.1354 14.1076 20.8261 12.3935C21.5168 10.6793 21.6256 8.78581 21.1358 7.00382C20.646 5.22182 19.5847 3.64993 18.1149 2.52961C16.6451 1.4093 14.8481 0.802536 13 0.802536C11.1519 0.802536 9.35497 1.4093 7.88517 2.52961C6.41538 3.64993 5.35405 5.22182 4.86425 7.00382C4.37445 8.78581 4.48326 10.6793 5.17396 12.3935C5.86467 14.1076 7.09907 15.5476 8.68752 16.4922C5.37357 17.5686 2.57354 19.8303 0.824239 22.8438C0.738354 22.985 0.692932 23.1472 0.692932 23.3125C0.692932 23.4778 0.738354 23.64 0.824239 23.7813C0.904368 23.9249 1.02178 24.0443 1.16409 24.1268C1.30641 24.2093 1.46835 24.2519 1.63283 24.25H24.3672C24.5317 24.2519 24.6936 24.2093 24.8359 24.1268C24.9783 24.0443 25.0957 23.9249 25.1758 23.7813C25.2617 23.64 25.3071 23.4778 25.3071 23.3125C25.3071 23.1472 25.2617 22.985 25.1758 22.8438Z" fill="#666666"/>
</svg>
