<svg width="34" height="34" viewBox="0 0 34 34" fill="none" xmlns="http://www.w3.org/2000/svg">
<g clip-path="url(#clip0_1_2924)">
<path d="M32.9375 27.625C32.9375 27.9068 32.8256 28.177 32.6263 28.3763C32.427 28.5755 32.1568 28.6875 31.875 28.6875H2.125C1.84321 28.6875 1.57296 28.5755 1.3737 28.3763C1.17444 28.177 1.0625 27.9068 1.0625 27.625C1.0625 27.3432 1.17444 27.0729 1.3737 26.8737C1.57296 26.6744 1.84321 26.5625 2.125 26.5625H31.875C32.1568 26.5625 32.427 26.6744 32.6263 26.8737C32.8256 27.0729 32.9375 27.3432 32.9375 27.625ZM2.16484 13.0422C2.10153 12.8195 2.11267 12.5822 2.19657 12.3665C2.28048 12.1507 2.43256 11.9682 2.62969 11.8468L16.4422 3.34684C16.6093 3.24193 16.8027 3.18628 17 3.18628C17.1973 3.18628 17.3907 3.24193 17.5578 3.34684L31.3703 11.8468C31.5666 11.9685 31.7179 12.1507 31.8013 12.366C31.8847 12.5813 31.8958 12.8179 31.8327 13.04C31.7697 13.2622 31.636 13.4577 31.452 13.5971C31.2679 13.7364 31.0434 13.8121 30.8125 13.8125H27.625V22.3125H29.75C30.0318 22.3125 30.302 22.4244 30.5013 22.6237C30.7006 22.8229 30.8125 23.0932 30.8125 23.375C30.8125 23.6568 30.7006 23.927 30.5013 24.1263C30.302 24.3255 30.0318 24.4375 29.75 24.4375H4.25C3.96821 24.4375 3.69796 24.3255 3.4987 24.1263C3.29944 23.927 3.1875 23.6568 3.1875 23.375C3.1875 23.0932 3.29944 22.8229 3.4987 22.6237C3.69796 22.4244 3.96821 22.3125 4.25 22.3125H6.375V13.8125H3.1875C2.95647 13.8127 2.73165 13.7376 2.54712 13.5986C2.36258 13.4596 2.22838 13.2643 2.16484 13.0422ZM19.125 21.25C19.125 21.5318 19.2369 21.802 19.4362 22.0013C19.6355 22.2005 19.9057 22.3125 20.1875 22.3125C20.4693 22.3125 20.7395 22.2005 20.9388 22.0013C21.1381 21.802 21.25 21.5318 21.25 21.25V14.875C21.25 14.5932 21.1381 14.3229 20.9388 14.1237C20.7395 13.9244 20.4693 13.8125 20.1875 13.8125C19.9057 13.8125 19.6355 13.9244 19.4362 14.1237C19.2369 14.3229 19.125 14.5932 19.125 14.875V21.25ZM12.75 21.25C12.75 21.5318 12.8619 21.802 13.0612 22.0013C13.2605 22.2005 13.5307 22.3125 13.8125 22.3125C14.0943 22.3125 14.3645 22.2005 14.5638 22.0013C14.7631 21.802 14.875 21.5318 14.875 21.25V14.875C14.875 14.5932 14.7631 14.3229 14.5638 14.1237C14.3645 13.9244 14.0943 13.8125 13.8125 13.8125C13.5307 13.8125 13.2605 13.9244 13.0612 14.1237C12.8619 14.3229 12.75 14.5932 12.75 14.875V21.25Z" fill="#438883"/>
</g>
<defs>
<clipPath id="clip0_1_2924">
<rect width="34" height="34" fill="white"/>
</clipPath>
</defs>
</svg>
