<svg width="34" height="34" viewBox="0 0 34 34" fill="none" xmlns="http://www.w3.org/2000/svg">
<g clip-path="url(#clip0_1_3198)">
<path d="M29.75 6.375H4.25C3.68641 6.375 3.14591 6.59888 2.7474 6.9974C2.34888 7.39591 2.125 7.93642 2.125 8.5V12.8695V25.4867C2.125 26.0503 2.34888 26.5908 2.7474 26.9893C3.14591 27.3878 3.68641 27.6117 4.25 27.6117H29.75C30.3136 27.6117 30.8541 27.3878 31.2526 26.9893C31.6511 26.5908 31.875 26.0503 31.875 25.4867V8.5C31.875 7.93642 31.6511 7.39591 31.2526 6.9974C30.8541 6.59888 30.3136 6.375 29.75 6.375ZM18.0625 23.375H15.9375C15.6557 23.375 15.3855 23.2631 15.1862 23.0638C14.9869 22.8646 14.875 22.5943 14.875 22.3125C14.875 22.0307 14.9869 21.7605 15.1862 21.5612C15.3855 21.3619 15.6557 21.25 15.9375 21.25H18.0625C18.3443 21.25 18.6145 21.3619 18.8138 21.5612C19.0131 21.7605 19.125 22.0307 19.125 22.3125C19.125 22.5943 19.0131 22.8646 18.8138 23.0638C18.6145 23.2631 18.3443 23.375 18.0625 23.375ZM26.5625 23.375H22.3125C22.0307 23.375 21.7605 23.2631 21.5612 23.0638C21.3619 22.8646 21.25 22.5943 21.25 22.3125C21.25 22.0307 21.3619 21.7605 21.5612 21.5612C21.7605 21.3619 22.0307 21.25 22.3125 21.25H26.5625C26.8443 21.25 27.1145 21.3619 27.3138 21.5612C27.5131 21.7605 27.625 22.0307 27.625 22.3125C27.625 22.5943 27.5131 22.8646 27.3138 23.0638C27.1145 23.2631 26.8443 23.375 26.5625 23.375ZM4.25 11.807V8.5H29.75V11.807H4.25Z" fill="#438883"/>
</g>
<defs>
<clipPath id="clip0_1_3198">
<rect width="34" height="34" fill="white"/>
</clipPath>
</defs>
</svg>
