<svg width="38" height="38" viewBox="0 0 38 38" fill="none" xmlns="http://www.w3.org/2000/svg">
<g clip-path="url(#clip0_1_2930)">
<path d="M19 3.5625C15.9467 3.5625 12.9621 4.46789 10.4234 6.16419C7.8847 7.86048 5.90604 10.2715 4.73761 13.0923C3.56918 15.9132 3.26347 19.0171 3.85913 22.0117C4.45479 25.0063 5.92507 27.757 8.08404 29.916C10.243 32.0749 12.9937 33.5452 15.9883 34.1409C18.9829 34.7365 22.0868 34.4308 24.9077 33.2624C27.7285 32.094 30.1395 30.1153 31.8358 27.5766C33.5321 25.0379 34.4375 22.0532 34.4375 19C34.4297 14.9081 32.8007 10.9861 29.9073 8.09271C27.0139 5.19931 23.0919 3.57035 19 3.5625ZM20.7812 26.125H20.1875V27.3125C20.1875 27.6274 20.0624 27.9295 19.8397 28.1522C19.617 28.3749 19.3149 28.5 19 28.5C18.6851 28.5 18.383 28.3749 18.1603 28.1522C17.9376 27.9295 17.8125 27.6274 17.8125 27.3125V26.125H15.4375C15.1226 26.125 14.8205 25.9999 14.5978 25.7772C14.3751 25.5545 14.25 25.2524 14.25 24.9375C14.25 24.6226 14.3751 24.3205 14.5978 24.0978C14.8205 23.8751 15.1226 23.75 15.4375 23.75H20.7812C21.2537 23.75 21.7067 23.5623 22.0408 23.2283C22.3748 22.8942 22.5625 22.4412 22.5625 21.9688C22.5625 21.4963 22.3748 21.0433 22.0408 20.7092C21.7067 20.3752 21.2537 20.1875 20.7812 20.1875H17.2187C16.1164 20.1875 15.0593 19.7496 14.2798 18.9702C13.5004 18.1907 13.0625 17.1336 13.0625 16.0312C13.0625 14.9289 13.5004 13.8718 14.2798 13.0923C15.0593 12.3129 16.1164 11.875 17.2187 11.875H17.8125V10.6875C17.8125 10.3726 17.9376 10.0705 18.1603 9.84781C18.383 9.62511 18.6851 9.5 19 9.5C19.3149 9.5 19.617 9.62511 19.8397 9.84781C20.0624 10.0705 20.1875 10.3726 20.1875 10.6875V11.875H22.5625C22.8774 11.875 23.1795 12.0001 23.4022 12.2228C23.6249 12.4455 23.75 12.7476 23.75 13.0625C23.75 13.3774 23.6249 13.6795 23.4022 13.9022C23.1795 14.1249 22.8774 14.25 22.5625 14.25H17.2187C16.7463 14.25 16.2933 14.4377 15.9592 14.7717C15.6252 15.1058 15.4375 15.5588 15.4375 16.0312C15.4375 16.5037 15.6252 16.9567 15.9592 17.2908C16.2933 17.6248 16.7463 17.8125 17.2187 17.8125H20.7812C21.8836 17.8125 22.9407 18.2504 23.7202 19.0298C24.4996 19.8093 24.9375 20.8664 24.9375 21.9688C24.9375 23.0711 24.4996 24.1282 23.7202 24.9077C22.9407 25.6871 21.8836 26.125 20.7812 26.125Z" fill="#888888"/>
</g>
<defs>
<clipPath id="clip0_1_2930">
<rect width="38" height="38" fill="white"/>
</clipPath>
</defs>
</svg>
