<svg width="30" height="30" viewBox="0 0 30 30" fill="none" xmlns="http://www.w3.org/2000/svg">
<path d="M26.9583 27V10.698L15.375 3.49802L3.79167 10.698V27H9.58333V22.875C9.58333 21.2837 10.1935 19.7576 11.2797 18.6324C12.3658 17.5072 13.839 16.875 15.375 16.875C16.911 16.875 18.3842 17.5072 19.4703 18.6324C20.5565 19.7576 21.1667 21.2837 21.1667 22.875V27H26.9583ZM18.2708 30V22.875C18.2708 22.0794 17.9657 21.3163 17.4227 20.7537C16.8796 20.1911 16.143 19.875 15.375 19.875C14.607 19.875 13.8704 20.1911 13.3273 20.7537C12.7843 21.3163 12.4792 22.0794 12.4792 22.875V30H3.79167C3.02364 30 2.28708 29.6839 1.744 29.1213C1.20093 28.5587 0.895832 27.7957 0.895832 27V10.698C0.895827 10.18 1.02532 9.67073 1.2717 9.21991C1.51808 8.76909 1.87295 8.39206 2.30176 8.12551L13.8851 0.925515C14.3352 0.645762 14.8501 0.497986 15.375 0.497986C15.8999 0.497986 16.4148 0.645762 16.8649 0.925515L28.4482 8.12551C28.877 8.39206 29.2319 8.76909 29.4783 9.21991C29.7247 9.67073 29.8542 10.18 29.8542 10.698V27C29.8542 27.7957 29.5491 28.5587 29.006 29.1213C28.4629 29.6839 27.7264 30 26.9583 30H18.2708Z" fill="#AAAAAA"/>
</svg>
