<svg width="30" height="30" viewBox="0 0 30 30" fill="none" xmlns="http://www.w3.org/2000/svg">
<g clip-path="url(#clip0_1_2693)">
<path d="M28.125 24.375H26.25V13.5352C26.2506 13.2738 26.1956 13.0153 26.0885 12.7769C25.9814 12.5384 25.8247 12.3255 25.6289 12.1524L16.2539 3.63285C15.9102 3.31745 15.4606 3.14246 14.9941 3.14246C14.5276 3.14246 14.0781 3.31745 13.7344 3.63285L4.35938 12.1524C4.16743 12.328 4.01412 12.5416 3.90921 12.7797C3.8043 13.0177 3.75008 13.275 3.75 13.5352V24.375H1.875C1.62636 24.375 1.3879 24.4738 1.21209 24.6496C1.03627 24.8254 0.9375 25.0639 0.9375 25.3125C0.9375 25.5612 1.03627 25.7996 1.21209 25.9755C1.3879 26.1513 1.62636 26.25 1.875 26.25H28.125C28.3736 26.25 28.6121 26.1513 28.7879 25.9755C28.9637 25.7996 29.0625 25.5612 29.0625 25.3125C29.0625 25.0639 28.9637 24.8254 28.7879 24.6496C28.6121 24.4738 28.3736 24.375 28.125 24.375ZM17.8125 24.375H12.1875V18.75C12.1875 18.5014 12.2863 18.2629 12.4621 18.0871C12.6379 17.9113 12.8764 17.8125 13.125 17.8125H16.875C17.1236 17.8125 17.3621 17.9113 17.5379 18.0871C17.7137 18.2629 17.8125 18.5014 17.8125 18.75V24.375Z" fill="url(#paint0_linear_1_2693)"/>
</g>
<defs>
<linearGradient id="paint0_linear_1_2693" x1="15" y1="3.14246" x2="15" y2="26.25" gradientUnits="userSpaceOnUse">
<stop stop-color="#549994"/>
<stop offset="1" stop-color="#408782"/>
</linearGradient>
<clipPath id="clip0_1_2693">
<rect width="30" height="30" fill="white"/>
</clipPath>
</defs>
</svg>
