<svg width="40" height="40" viewBox="0 0 40 40" fill="none" xmlns="http://www.w3.org/2000/svg">
<rect width="40" height="40" rx="6.66667" fill="white" fill-opacity="0.06"/>
<g clip-path="url(#clip0_1_2611)">
<path d="M20 31.6667C20.7735 31.6667 21.5154 31.3594 22.0624 30.8124C22.6094 30.2654 22.9166 29.5235 22.9166 28.75H17.0833C17.0833 29.5235 17.3906 30.2654 17.9376 30.8124C18.4846 31.3594 19.2264 31.6667 20 31.6667Z" fill="white"/>
<path fill-rule="evenodd" clip-rule="evenodd" d="M20 11.1304L18.8377 11.3652C17.5193 11.6338 16.3343 12.3497 15.4831 13.3917C14.6319 14.4337 14.1668 15.7378 14.1667 17.0833C14.1667 17.9991 13.9713 20.2873 13.4973 22.5404C13.264 23.6589 12.949 24.8241 12.5304 25.8333H27.4696C27.0511 24.8241 26.7375 23.6604 26.5027 22.5404C26.0288 20.2873 25.8334 17.9991 25.8334 17.0833C25.8329 15.7381 25.3677 14.4343 24.5165 13.3926C23.6654 12.3509 22.4805 11.6352 21.1623 11.3666L20 11.1289V11.1304ZM29.0709 25.8333C29.3961 26.4852 29.7723 27.0014 30.2084 27.2916H9.79169C10.2277 27.0014 10.604 26.4852 10.9292 25.8333C12.2417 23.2083 12.7084 18.3666 12.7084 17.0833C12.7084 13.5541 15.2167 10.6083 18.549 9.93602C18.5286 9.73324 18.551 9.52845 18.6147 9.33485C18.6783 9.14125 18.7818 8.96315 18.9186 8.81202C19.0553 8.66089 19.2221 8.54009 19.4084 8.45742C19.5947 8.37475 19.7962 8.33203 20 8.33203C20.2038 8.33203 20.4053 8.37475 20.5916 8.45742C20.7779 8.54009 20.9448 8.66089 21.0815 8.81202C21.2182 8.96315 21.3217 9.14125 21.3854 9.33485C21.449 9.52845 21.4714 9.73324 21.4511 9.93602C23.0994 10.2713 24.5812 11.1659 25.6456 12.4684C26.7099 13.7709 27.2915 15.4012 27.2917 17.0833C27.2917 18.3666 27.7584 23.2083 29.0709 25.8333Z" fill="white"/>
<circle cx="25.8334" cy="14.1667" r="4.16667" fill="#FFAB7B"/>
</g>
<defs>
<clipPath id="clip0_1_2611">
<rect width="23.3333" height="23.3333" fill="white" transform="translate(8.33331 8.33331)"/>
</clipPath>
</defs>
</svg>
