<svg width="42" height="42" viewBox="0 0 42 42" fill="none" xmlns="http://www.w3.org/2000/svg">
<path d="M21 0.6875C16.9826 0.6875 13.0553 1.87881 9.71497 4.11077C6.3746 6.34274 3.7711 9.51512 2.23369 13.2267C0.696286 16.9384 0.294031 21.0225 1.07779 24.9628C1.86156 28.903 3.79613 32.5224 6.63689 35.3631C9.47764 38.2039 13.097 40.1384 17.0372 40.9222C20.9775 41.706 25.0616 41.3037 28.7732 39.7663C32.4849 38.2289 35.6572 35.6254 37.8892 32.285C40.1212 28.9446 41.3125 25.0174 41.3125 21C41.3022 15.616 39.1588 10.4554 35.3517 6.6483C31.5446 2.8412 26.384 0.697824 21 0.6875ZM30.668 17.4453L19.2226 28.3828C18.9268 28.6612 18.5351 28.815 18.1289 28.8125C17.9303 28.8153 17.7332 28.7788 17.5488 28.7051C17.3644 28.6313 17.1965 28.5218 17.0547 28.3828L11.332 22.9141C11.1733 22.7756 11.0442 22.6064 10.9525 22.4168C10.8608 22.2272 10.8084 22.0209 10.7985 21.8105C10.7885 21.6001 10.8212 21.3899 10.8946 21.1924C10.968 20.995 11.0805 20.8144 11.2255 20.6615C11.3704 20.5087 11.5447 20.3867 11.738 20.303C11.9313 20.2192 12.1395 20.1754 12.3502 20.1742C12.5608 20.173 12.7695 20.2144 12.9638 20.2959C13.158 20.3774 13.3338 20.4973 13.4805 20.6484L18.1289 25.082L28.5195 15.1797C28.8233 14.9146 29.2178 14.7773 29.6206 14.7963C30.0233 14.8154 30.4031 14.9894 30.6805 15.2819C30.958 15.5745 31.1115 15.963 31.1092 16.3661C31.1069 16.7693 30.9488 17.156 30.668 17.4453Z" fill="#438883"/>
</svg>
