<svg width="34" height="34" viewBox="0 0 34 34" fill="none" xmlns="http://www.w3.org/2000/svg">
<path d="M28.21 9.88062C28.1815 10.0639 28.1483 10.2512 28.1111 10.4437C26.8381 16.9489 22.4825 19.1961 16.919 19.1961H14.0868C13.4068 19.1961 12.833 19.6875 12.7274 20.3555L11.2771 29.509L10.8667 32.1035C10.8043 32.4966 11.0739 32.8665 11.469 32.9282C11.5062 32.9342 11.5441 32.9369 11.5819 32.9369H16.6056C17.2006 32.9369 17.7059 32.5066 17.7995 31.9228L17.8487 31.6685L18.7943 25.6946L18.8547 25.3666C18.947 24.7808 19.4537 24.3505 20.0487 24.3505H20.7998C25.6673 24.3505 29.4771 22.3836 30.5907 16.6926C31.0562 14.3152 30.8152 12.3303 29.584 10.9338C29.1936 10.5024 28.7281 10.1455 28.21 9.88062Z" fill="#888888"/>
<path d="M25.6009 3.3927C24.1613 1.76109 21.5628 1.0625 18.2372 1.0625H8.58301C7.90367 1.0625 7.32395 1.55391 7.21903 2.22328L3.19813 27.5898C3.12641 28.04 3.4352 28.463 3.88809 28.5341C3.93059 28.5407 3.97375 28.5441 4.01692 28.5441H9.97754L11.4743 19.0951L11.4279 19.3913C11.5314 18.7239 12.1092 18.2312 12.7872 18.2318H15.6194C21.1823 18.2318 25.5379 15.9833 26.8115 9.47949C26.8494 9.28691 26.8813 9.09965 26.9105 8.91637H26.9118C27.289 6.5118 26.9072 4.87488 25.6009 3.3927Z" fill="#888888"/>
</svg>
