<svg width="20" height="28" viewBox="0 0 20 28" fill="none" xmlns="http://www.w3.org/2000/svg">
<path d="M19.6032 12.9281C19.5707 12.7871 19.5037 12.6563 19.4083 12.5475C19.3128 12.4387 19.1919 12.3552 19.0563 12.3047L12.7563 9.94215L14.3532 1.92497C14.3899 1.73926 14.3662 1.54667 14.2855 1.37543C14.2048 1.20418 14.0713 1.06329 13.9047 0.973406C13.7365 0.883908 13.5434 0.852543 13.3554 0.884194C13.1675 0.915844 12.9953 1.00873 12.8657 1.14841L0.61565 14.2734C0.515275 14.3775 0.442648 14.5052 0.404428 14.6447C0.366209 14.7842 0.363621 14.9311 0.3969 15.0718C0.431143 15.2121 0.498742 15.342 0.593952 15.4506C0.689163 15.5591 0.80917 15.6431 0.943776 15.6953L7.24378 18.0578L5.6469 26.075C5.61018 26.2607 5.6339 26.4533 5.71461 26.6245C5.79531 26.7957 5.92874 26.9366 6.09534 27.0265C6.22092 27.0899 6.35938 27.1236 6.50003 27.125C6.61889 27.1255 6.73658 27.1014 6.84573 27.0544C6.95488 27.0073 7.05316 26.9383 7.1344 26.8515L19.3844 13.7265C19.4848 13.6224 19.5574 13.4947 19.5956 13.3552C19.6339 13.2157 19.6364 13.0688 19.6032 12.9281Z" fill="#438883"/>
</svg>
