<svg width="27" height="26" viewBox="0 0 27 26" fill="none" xmlns="http://www.w3.org/2000/svg">
<path d="M0.929688 4V22C0.929688 22.5967 1.15851 23.169 1.56581 23.591C1.97312 24.0129 2.52555 24.25 3.10156 24.25H24.8203C25.1083 24.25 25.3845 24.1315 25.5882 23.9205C25.7918 23.7095 25.9062 23.4234 25.9062 23.125V7.375C25.9062 7.07663 25.7918 6.79048 25.5882 6.57951C25.3845 6.36853 25.1083 6.25 24.8203 6.25H3.10156C2.52555 6.25 1.97312 6.01295 1.56581 5.59099C1.15851 5.16903 0.929688 4.59674 0.929688 4ZM0.929688 4C0.929688 3.40326 1.15851 2.83097 1.56581 2.40901C1.97312 1.98705 2.52555 1.75 3.10156 1.75H21.5625" stroke="#AAAAAA" stroke-width="1.6875" stroke-linecap="round" stroke-linejoin="round"/>
</svg>
